<svg id="Layer_1" data-name="Layer 1" xmlns="http://www.w3.org/2000/svg" xmlns:xlink="http://www.w3.org/1999/xlink" viewBox="0 0 86.42 25.4"><defs><style>.cls-1{fill:url(#linear-gradient);}</style><linearGradient id="linear-gradient" x1="43.21" y1="25.83" x2="43.21" y2="0.1" gradientUnits="userSpaceOnUse"><stop offset="0.02" stop-color="#6173cf"/><stop offset="0.89" stop-color="#8762cf"/></linearGradient></defs><path class="cls-1" d="M76.75,19.89a2.16,2.16,0,0,1-.33-1.18h.65a1.55,1.55,0,0,0,.25.87,1.67,1.67,0,0,0,.69.59,2.35,2.35,0,0,0,1,.21,2.25,2.25,0,0,0,1-.21,1.73,1.73,0,0,0,.69-.59,1.63,1.63,0,0,0,.24-.87h.66a2.25,2.25,0,0,1-.33,1.18,2.29,2.29,0,0,1-.92.82A2.92,2.92,0,0,1,79,21a3,3,0,0,1-1.36-.3A2.29,2.29,0,0,1,76.75,19.89Zm9.67-6.05a2.14,2.14,0,0,1-.25,1,1.77,1.77,0,0,1-.71.7,2.14,2.14,0,0,1-1,.25H83.17v3a3.51,3.51,0,0,1-.53,1.9,3.6,3.6,0,0,1-1.47,1.31,4.76,4.76,0,0,1-2.13.47,4.91,4.91,0,0,1-2.17-.47,3.63,3.63,0,0,1-1.48-1.31,3.51,3.51,0,0,1-.53-1.9v-6.5A.48.48,0,0,1,75,12a.5.5,0,0,1,.37-.15.5.5,0,0,1,.38.15.48.48,0,0,1,.15.37v6.5a2.53,2.53,0,0,0,.39,1.39,2.72,2.72,0,0,0,1.11.95,3.68,3.68,0,0,0,1.63.34,3.54,3.54,0,0,0,1.59-.34,2.69,2.69,0,0,0,1.1-.95,2.53,2.53,0,0,0,.39-1.39v-6.5a.48.48,0,0,1,.15-.37.5.5,0,0,1,.38-.15h1.79a2,2,0,0,1,1,.25,1.86,1.86,0,0,1,.71.71A2.19,2.19,0,0,1,86.42,13.84Zm-.6,0a1.44,1.44,0,0,0-.18-.73,1.24,1.24,0,0,0-.49-.5,1.41,1.41,0,0,0-.71-.18H83.17v2.79h1.27a1.41,1.41,0,0,0,.71-.18,1.22,1.22,0,0,0,.49-.49A1.41,1.41,0,0,0,85.82,13.84ZM7.14,25.4a9.26,9.26,0,0,0,3.59-.65,5.73,5.73,0,0,0,2.47-1.81,4.24,4.24,0,0,0,.89-2.65,4.15,4.15,0,0,0-1.49-3.24,9.94,9.94,0,0,0-4.94-1.89A9.42,9.42,0,0,1,4.1,14a2.15,2.15,0,0,1,.07-3.68A4.92,4.92,0,0,1,7,9.63a5.44,5.44,0,0,1,4.33,1.81,1.49,1.49,0,0,0,1.13.48,1,1,0,0,0,.62-.16,1,1,0,0,0,.52-.87,1.5,1.5,0,0,0-.26-.74,6.52,6.52,0,0,0-2.56-2A8.71,8.71,0,0,0,7.08,7.4,7.76,7.76,0,0,0,2.5,8.69,4.24,4.24,0,0,0,.68,12.34a3.85,3.85,0,0,0,1.57,3.09A10,10,0,0,0,7,17.22a9,9,0,0,1,3.59,1.17,2.3,2.3,0,0,1,1.13,1.94,2.43,2.43,0,0,1-1.16,2,6,6,0,0,1-3.4.78,7.82,7.82,0,0,1-2.83-.49,4.88,4.88,0,0,1-2-1.39,1.19,1.19,0,0,0-.93-.45,1.34,1.34,0,0,0-.81.29,1.11,1.11,0,0,0-.2,1.72,7.58,7.58,0,0,0,3,1.9A11.05,11.05,0,0,0,7.14,25.4Zm16.24-18a7.93,7.93,0,0,0-3.3.68A7.45,7.45,0,0,0,17.5,9.92V1.26a1.21,1.21,0,0,0-.34-.9A1.17,1.17,0,0,0,16.27,0a1.19,1.19,0,0,0-.9.36,1.19,1.19,0,0,0-.36.9V24a1.17,1.17,0,0,0,.36.89,1.21,1.21,0,0,0,.9.34A1.17,1.17,0,0,0,17.5,24V14.45A4.18,4.18,0,0,1,18.24,12a5.11,5.11,0,0,1,2-1.7,6.52,6.52,0,0,1,2.86-.61,5.88,5.88,0,0,1,4.19,1.5,5.74,5.74,0,0,1,1.6,4.38V24a1.18,1.18,0,0,0,.35.87,1.23,1.23,0,0,0,.91.36,1.19,1.19,0,0,0,.87-.36,1.15,1.15,0,0,0,.35-.87v-8.4a9,9,0,0,0-1-4.44A6.9,6.9,0,0,0,27.5,8.34,8.61,8.61,0,0,0,23.38,7.37Zm18,18A9.23,9.23,0,0,0,46,24.24,8.35,8.35,0,0,0,49.18,21a9.12,9.12,0,0,0,1.17-4.6,9.18,9.18,0,0,0-1.18-4.62A8.56,8.56,0,0,0,46,8.56,9.1,9.1,0,0,0,41.36,7.4a9.22,9.22,0,0,0-4.6,1.16,8.42,8.42,0,0,0-3.22,3.24,9.27,9.27,0,0,0-1.16,4.62A9.22,9.22,0,0,0,33.54,21a8.44,8.44,0,0,0,3.22,3.22A9.22,9.22,0,0,0,41.36,25.4Zm0-2.26A6.55,6.55,0,0,1,38,22.27a6.35,6.35,0,0,1-2.36-2.41,6.94,6.94,0,0,1-.86-3.44,7,7,0,0,1,.86-3.48A6.25,6.25,0,0,1,38,10.54a6.82,6.82,0,0,1,6.7,0,6.18,6.18,0,0,1,2.33,2.4,7.14,7.14,0,0,1,.84,3.48,7,7,0,0,1-.84,3.44,6.27,6.27,0,0,1-2.33,2.41A6.52,6.52,0,0,1,41.36,23.14Zm30-15.58a1.21,1.21,0,0,0-1.2.94L66.08,21,62.36,8.53a1.38,1.38,0,0,0-.43-.71,1.35,1.35,0,0,0-1.59,0,1.38,1.38,0,0,0-.43.71L56.09,21.1,52,8.5a1.23,1.23,0,0,0-1.23-.94.94.94,0,0,0-1,1.07,3.19,3.19,0,0,0,.1.68l5,15.12a1.49,1.49,0,0,0,.47.58,1.22,1.22,0,0,0,.73.23,1.28,1.28,0,0,0,.71-.21,1.1,1.1,0,0,0,.45-.6l3.88-12.86L65,24.43a1,1,0,0,0,.43.58,1.36,1.36,0,0,0,.76.23,1.23,1.23,0,0,0,1.17-.81l5-15.12a1.79,1.79,0,0,0,.13-.68,1.09,1.09,0,0,0-.29-.78A1.13,1.13,0,0,0,71.38,7.56Z"/></svg>