<svg xmlns="http://www.w3.org/2000/svg" xmlns:xlink="http://www.w3.org/1999/xlink" viewBox="0 0 1758.74 628"><defs><style>.cls-1{fill:url(#linear-gradient);}.cls-2{fill:url(#linear-gradient-2);}.cls-3{fill:url(#linear-gradient-3);}.cls-4{fill:url(#linear-gradient-4);}.cls-5{fill:url(#linear-gradient-5);}.cls-6{fill:url(#linear-gradient-6);}.cls-7{fill:url(#linear-gradient-7);}</style><linearGradient id="linear-gradient" x1="712.87" y1="517.22" x2="712.87" y2="332.42" gradientUnits="userSpaceOnUse"><stop offset="0.02" stop-color="#6173cf"/><stop offset="0.89" stop-color="#8762cf"/></linearGradient><linearGradient id="linear-gradient-2" x1="876.35" y1="515.23" x2="876.35" y2="257.04" xlink:href="#linear-gradient"/><linearGradient id="linear-gradient-3" x1="1062.36" y1="517.22" x2="1062.36" y2="332.42" xlink:href="#linear-gradient"/><linearGradient id="linear-gradient-4" x1="1264.79" y1="515.23" x2="1264.79" y2="334.4" xlink:href="#linear-gradient"/><linearGradient id="linear-gradient-5" x1="1475.6" y1="517.55" x2="1475.6" y2="334.4" xlink:href="#linear-gradient"/><linearGradient id="linear-gradient-6" x1="1666.34" y1="592.59" x2="1666.34" y2="332.42" xlink:href="#linear-gradient"/><linearGradient id="linear-gradient-7" x1="314" y1="628" x2="314" y2="0" xlink:href="#linear-gradient"/></defs><g id="Layer_2" data-name="Layer 2"><g id="Layer_5" data-name="Layer 5"><path class="cls-1" d="M767.92,433.08q-15.37-13.71-50.42-18.68-26.78-4-38.18-11.9t-11.41-21.16q0-12.88,11.9-21.65t32.07-8.76q30.42,0,47.28,21.49a10,10,0,0,0,8.26,4.29,14.85,14.85,0,0,0,5-1.32q5.28-3,5.29-7.6a8.35,8.35,0,0,0-2-5.62q-21.5-29.76-63.15-29.75-28.44,0-46.12,13.38t-17.68,37.53q0,18.18,16.36,31.07t48.43,17.52q50.58,7.27,50.59,33.39,0,14.55-12.4,23.81t-38.52,9.25q-36.69,0-53.22-20.16a9.39,9.39,0,0,0-7.61-3.64,8.53,8.53,0,0,0-5.61,1.65,8.94,8.94,0,0,0-4.3,7.61,8.81,8.81,0,0,0,2.31,5.95,72,72,0,0,0,30.09,20.66,106,106,0,0,0,37.35,6.78,97.28,97.28,0,0,0,35.38-6.28q16.18-6.29,25.95-17.86a40.34,40.34,0,0,0,9.75-26.77Q783.29,446.8,767.92,433.08Z"/><path class="cls-2" d="M919,342q-19-9.92-43.15-9.92a80.85,80.85,0,0,0-35.37,7.77A78.53,78.53,0,0,0,813,361.51V267a10.18,10.18,0,0,0-17-7.28,9.5,9.5,0,0,0-2.81,7.28V505.31a9.61,9.61,0,0,0,9.91,9.92,9.5,9.5,0,0,0,7.28-2.81,10,10,0,0,0,2.64-7.11V404.15a46,46,0,0,1,8.27-26.61A55.31,55.31,0,0,1,844,358.7a73.88,73.88,0,0,1,31.9-6.78q28.44,0,46.12,16.53t17.69,47.94v88.92a9.92,9.92,0,1,0,19.83,0V416.39q0-26.44-10.74-45.46A71.65,71.65,0,0,0,919,342Z"/><path class="cls-3" d="M1109.47,344.48a93.13,93.13,0,0,0-47-12.06q-26.12,0-47.27,12.06A87.41,87.41,0,0,0,982,377.71Q970,398.86,970,425q0,25.78,12.07,46.95a87.38,87.38,0,0,0,33.22,33.22q21.15,12.08,47.27,12.07,25.8,0,47-12.07a87.45,87.45,0,0,0,33.22-33.22q12.07-21.17,12.07-46.95,0-26.12-12.07-47.27A87.48,87.48,0,0,0,1109.47,344.48Zm16,118.19a68.77,68.77,0,0,1-26,26.45,76.34,76.34,0,0,1-74,0,69.91,69.91,0,0,1-26.12-26.45,78.86,78.86,0,0,1,0-75.38,73.69,73.69,0,0,1,100.17-26.61,70,70,0,0,1,26,26.61,80.11,80.11,0,0,1,0,75.38Z"/><path class="cls-4" d="M1373.06,334.4a9.36,9.36,0,0,0-9.26,6l-46,138.19-43.31-136.21q-2.64-7.93-9.91-7.93a9.65,9.65,0,0,0-6.28,2.15,10.87,10.87,0,0,0-3.64,5.78l-43,138.85-46.61-140.83a9.59,9.59,0,0,0-3.8-4.46,10.38,10.38,0,0,0-5.46-1.49q-8.27,0-8.26,8.92a38.64,38.64,0,0,0,.66,5.29L1201.81,509a8.66,8.66,0,0,0,3.47,4.63,10.14,10.14,0,0,0,5.79,1.65q6.95,0,9.26-6.28L1264,369.11l45,139.84a7.07,7.07,0,0,0,3.3,4.63,10.92,10.92,0,0,0,6,1.65,10.74,10.74,0,0,0,6.12-1.65,8.66,8.66,0,0,0,3.47-4.63L1381,348.61a14,14,0,0,0,1-5,9.71,9.71,0,0,0-2.32-6.61A8.32,8.32,0,0,0,1373.06,334.4Z"/><path class="cls-5" d="M1548.82,334.4a9.94,9.94,0,0,0-7.1,2.64,9.5,9.5,0,0,0-2.81,7.28V445.48a46.06,46.06,0,0,1-8.27,26.61A55.25,55.25,0,0,1,1508,490.93a73.84,73.84,0,0,1-31.9,6.78q-28.42,0-46.12-16.53t-17.68-47.93V344.32a9.92,9.92,0,1,0-19.84,0v88.93q0,26.44,10.75,45.45A71.54,71.54,0,0,0,1433,507.63q19,9.92,43.14,9.92a80.79,80.79,0,0,0,35.38-7.77,78.71,78.71,0,0,0,27.44-21.66v17.19a9.61,9.61,0,0,0,9.91,9.92,9.5,9.5,0,0,0,7.28-2.81,10,10,0,0,0,2.64-7.11v-161a9.14,9.14,0,0,0-9.92-9.92Z"/><path class="cls-6" d="M1746.67,377.71a87.55,87.55,0,0,0-33.22-33.23q-21.17-12.06-47.28-12.06a93.61,93.61,0,0,0-46.45,11.73,87.35,87.35,0,0,0-33.22,32.56A92,92,0,0,0,1573.94,423V582.67a9.5,9.5,0,0,0,2.81,7.28,10,10,0,0,0,7.11,2.64,9.14,9.14,0,0,0,9.91-9.92V479.53a77,77,0,0,0,29.92,27.6q19,10.1,42.48,10.09,26.11,0,47.28-12.07a87.52,87.52,0,0,0,33.22-33.22q12.07-21.17,12.07-46.95Q1758.74,398.87,1746.67,377.71Zm-17.35,85a70.05,70.05,0,0,1-26.12,26.45,76.34,76.34,0,0,1-74,0,68.8,68.8,0,0,1-26-26.45,80.11,80.11,0,0,1,0-75.38,70,70,0,0,1,26-26.61,72.62,72.62,0,0,1,100.17,26.61,78.93,78.93,0,0,1,0,75.38Z"/><path class="cls-7" d="M314,0C140.58,0,0,140.58,0,314S140.58,628,314,628,628,487.42,628,314,487.42,0,314,0ZM275.15,520.6a9.4,9.4,0,0,1-9.4,9.4h-127a9.4,9.4,0,0,1-9.4-9.4V466.83h0a72.92,72.92,0,0,1,145.83,0h0Zm199.73,0a9.4,9.4,0,0,1-9.4,9.4h-127a9.4,9.4,0,0,1-9.4-9.4V466.83h0a72.92,72.92,0,0,1,145.83,0h0Zm15.79-385.93a8.86,8.86,0,0,1-8.86,8.87h-6.5a2.75,2.75,0,0,0-2.75,2.75l1.86,159.57a73,73,0,1,1-16.81-38.95,3.21,3.21,0,0,0,5.66-2.08l-1.86-118.54a2.75,2.75,0,0,0-2.75-2.75H277.43a2.75,2.75,0,0,0-2.74,2.75V305.86a75.59,75.59,0,0,1,.46,8.15,73,73,0,1,1-17.3-47.13,3.22,3.22,0,0,0,5.69-2.05V146.29a2.75,2.75,0,0,0-2.75-2.75,8.87,8.87,0,0,1-8.86-8.87V93.88A8.87,8.87,0,0,1,260.79,85h221a8.86,8.86,0,0,1,8.86,8.87Z"/></g></g></svg>